<svg width="81" height="80" viewBox="0 0 81 80" fill="none" xmlns="http://www.w3.org/2000/svg">
<g clip-path="url(#clip0_40_2)" filter="url(#filter0_d_40_2)">
<path d="M75.8352 3.77551C52.2422 10.6973 28.8072 17.9828 5.14514 24.6784L75.8352 3.77551Z" fill="#80519C"/>
<path d="M75.8352 3.77551C52.2422 10.6973 28.8072 17.9828 5.14514 24.6784" stroke="#82368C" stroke-width="8" stroke-miterlimit="10"/>
<path d="M75.8352 45.5813C52.2422 38.4039 28.8072 31.8361 5.14514 24.6784L75.8352 45.5813Z" fill="#80519C"/>
<path d="M75.8352 45.5813C52.2422 38.4039 28.8072 31.8361 5.14514 24.6784" stroke="#82368C" stroke-width="8" stroke-miterlimit="10"/>
<path d="M75.8352 26.4383C52.2423 33.3011 28.8171 40.5965 5.15503 47.3412L75.8352 26.4383Z" fill="white"/>
<path d="M75.8352 26.4383C52.2423 33.3011 28.8171 40.5965 5.15503 47.3412" stroke="#E6332A" stroke-width="8" stroke-miterlimit="10"/>
<path d="M75.8352 68.2442C52.2423 61.0078 28.8171 54.44 5.15503 47.3412L75.8352 68.2442Z" fill="white"/>
<path d="M75.8352 68.2442C52.2423 61.0078 28.8171 54.44 5.15503 47.3412" stroke="#E6332A" stroke-width="8" stroke-miterlimit="10"/>
<path d="M43.4664 25.2388V46.771" stroke="#F39200" stroke-width="8" stroke-miterlimit="10"/>
</g>
<defs>
<filter id="filter0_d_40_2" x="0" y="0" width="81" height="80" filterUnits="userSpaceOnUse" color-interpolation-filters="sRGB">
<feFlood flood-opacity="0" result="BackgroundImageFix"/>
<feColorMatrix in="SourceAlpha" type="matrix" values="0 0 0 0 0 0 0 0 0 0 0 0 0 0 0 0 0 0 127 0" result="hardAlpha"/>
<feOffset dy="4"/>
<feGaussianBlur stdDeviation="2"/>
<feComposite in2="hardAlpha" operator="out"/>
<feColorMatrix type="matrix" values="0 0 0 0 0 0 0 0 0 0 0 0 0 0 0 0 0 0 0.25 0"/>
<feBlend mode="normal" in2="BackgroundImageFix" result="effect1_dropShadow_40_2"/>
<feBlend mode="normal" in="SourceGraphic" in2="effect1_dropShadow_40_2" result="shape"/>
</filter>
<clipPath id="clip0_40_2">
<rect width="73" height="72" fill="white" transform="translate(4)"/>
</clipPath>
</defs>
</svg>
